<svg width="24" height="19" viewBox="0 0 24 19" fill="none" xmlns="http://www.w3.org/2000/svg">
<path fill-rule="evenodd" clip-rule="evenodd" d="M24 0.874828C24 0.391674 23.6083 0 23.1252 0H6.65575C6.3686 0 6.09973 0.140914 5.93635 0.377044L0.155429 8.73166C-0.0518095 9.03116 -0.0518096 9.42772 0.155429 9.72722L5.93635 18.0818C6.09973 18.318 6.3686 18.4589 6.65574 18.4589H23.1252C23.6083 18.4589 24 18.0672 24 17.5841V0.874828ZM22.3834 2.33985C22.3834 1.94142 22.0604 1.61843 21.662 1.61843H7.71357C7.4797 1.61843 7.26033 1.73181 7.12506 1.9226L2.24039 8.81219C2.06318 9.06213 2.06318 9.39675 2.24039 9.6467L7.12506 16.5363C7.26033 16.7271 7.4797 16.8404 7.71357 16.8404H21.662C22.0604 16.8404 22.3834 16.5175 22.3834 16.119V2.33985Z" fill="black"/>
<path fill-rule="evenodd" clip-rule="evenodd" d="M19.0991 5.61134L17.8619 4.37415L14.2299 8.00616L10.5979 4.37417L9.36069 5.61137L12.9927 9.24335L9.36067 12.8754L10.5979 14.1125L14.2299 10.4805L17.8619 14.1126L19.0991 12.8754L15.4671 9.24335L19.0991 5.61134Z" fill="black"/>
</svg>
