<svg width="549" height="422" viewBox="0 0 549 422" fill="none" xmlns="http://www.w3.org/2000/svg">
<path fill-rule="evenodd" clip-rule="evenodd" d="M548.679 20C548.679 8.95431 539.725 0 528.679 0H152.161C145.596 0 139.45 3.22154 135.714 8.61986L3.55335 199.62C-1.18445 206.467 -1.18445 215.533 3.55335 222.38L135.714 413.38C139.45 418.778 145.596 422 152.161 422H528.679C539.725 422 548.679 413.046 548.679 402V20ZM173.586 37C168.172 37 163.103 39.6566 160.023 44.1083L51.0372 201.615C47.1302 207.262 47.1302 214.738 51.0372 220.385L160.023 377.892C163.103 382.343 168.172 385 173.586 385H484.079C493.188 385 500.572 377.616 500.572 368.507V53.4929C500.572 44.3841 493.188 37 484.079 37H173.586Z" fill="black"/>
<path fill-rule="evenodd" clip-rule="evenodd" d="M242.284 100L214 128.284L297.034 211.318L214 294.352L242.284 322.636L325.318 239.602L408.351 322.636L436.636 294.351L353.602 211.318L436.636 128.284L408.351 100L325.318 183.034L242.284 100Z" fill="black"/>
</svg>
